<svg xmlns="http://www.w3.org/2000/svg" viewBox="0 0 320 200" width="320" height="200"><ellipse cx="146" cy="186" rx="74" ry="7" fill="#FFFFFF" opacity=".05"/><g transform="translate(78 50) scale(2.12)"><ellipse cx="20" cy="61" rx="6" ry="3" fill="#C2410C"/><ellipse cx="44" cy="61" rx="6" ry="3" fill="#C2410C"/><rect x="11" y="27" width="42" height="13" rx="3" fill="#1C1917"/><ellipse cx="24" cy="33.6" rx="3.5" ry="3.7" fill="#FAFAFA"/><circle cx="24.9" cy="32.7" r="2" fill="#1C1917"/><ellipse cx="40" cy="33.6" rx="3.5" ry="3.7" fill="#FAFAFA"/><circle cx="40.9" cy="32.7" r="2" fill="#1C1917"/><path d="M9 40H55V53C55 56.9 51.9 60 48 60H16C12.1 60 9 56.9 9 53Z" fill="#FB923C"/><rect x="15" y="40" width="6" height="20" fill="#F97316"/><rect x="43" y="40" width="6" height="20" fill="#F97316"/><path d="M9 55H55V53.5C55 57.1 51.9 60 48 60H16C12.1 60 9 57.1 9 53.5Z" fill="#EA580C" opacity=".6"/><rect x="7" y="38" width="50" height="5" rx="2.5" fill="#FBBF24"/><rect x="27" y="42" width="10" height="10.5" rx="2.6" fill="#27272A"/><circle cx="32" cy="46.2" r="1.9" fill="#FBBF24"/><rect x="31.1" y="46.2" width="1.8" height="3.8" rx=".9" fill="#FBBF24"/><ellipse cx="12.5" cy="48.5" rx="2.2" ry="1.5" fill="#FECDD3" opacity=".85"/><ellipse cx="51.5" cy="48.5" rx="2.2" ry="1.5" fill="#FECDD3" opacity=".85"/><g transform="rotate(-4 9 28)"><path d="M9 29V17C9 11.5 13 8 19 8H45C51 8 55 11.5 55 17V29Z" fill="#FBBF24"/><path d="M15 8H21V29H15ZM43 8H49V29H43Z" fill="#F59E0B"/><path d="M13.5 20C13.5 15.5 15.5 12.6 20 12.4" fill="none" stroke="#FDE68A" stroke-width="2.4" stroke-linecap="round"/><rect x="9" y="26" width="46" height="4" rx="2" fill="#D97706"/></g></g><path d="M184 70Q200 50 214 44" fill="none" stroke="#FBBF24" stroke-width="2.4" stroke-dasharray="2 6" stroke-linecap="round" opacity=".7"/><path d="M227.2 14L248.8 14L258 26.92L238 52L218 26.92Z" fill="none" stroke="#38BDF8" stroke-width="2.4" stroke-dasharray="5 5" stroke-linejoin="round" stroke-linecap="round"/><path d="M272 15C272.9 19.1 272.9 19.1 277 20C272.9 20.9 272.9 20.9 272 25C271.1 20.9 271.1 20.9 267 20C271.1 19.1 271.1 19.1 272 15Z" fill="#FDE68A"/><path d="M206 14.4C206.65 17.35 206.65 17.35 209.6 18C206.65 18.65 206.65 18.65 206 21.6C205.35 18.65 205.35 18.65 202.4 18C205.35 17.35 205.35 17.35 206 14.4Z" fill="#38BDF8"/><path d="M60 49.4C60.83 53.17 60.83 53.17 64.6 54C60.83 54.83 60.83 54.83 60 58.6C59.17 54.83 59.17 54.83 55.4 54C59.17 53.17 59.17 53.17 60 49.4Z" fill="#FBBF24"/><circle cx="272" cy="78" r="2.4" fill="#FAFAFA" opacity=".3"/><circle cx="56" cy="120" r="2" fill="#FAFAFA" opacity=".3"/></svg>
